<?xml version="1.0" encoding="UTF-8" standalone="no"?>
<!DOCTYPE svg PUBLIC "-//W3C//DTD SVG 1.0//EN" "http://www.w3.org/TR/2001/PR-SVG-20010719/DTD/svg10.dtd">
<svg width="63cm" height="24cm" viewBox="-3538 3153 1258 462" xmlns="http://www.w3.org/2000/svg" xmlns:xlink="http://www.w3.org/1999/xlink">
  <g>
    <rect style="fill: #ffffff" x="-3536.2" y="3174.7" width="1255.57" height="439.522"/>
    <rect style="fill: none; fill-opacity:0; stroke-width: 2; stroke: #000000" x="-3536.2" y="3174.7" width="1255.57" height="439.522"/>
    <rect style="fill: #ffffff" x="-3536.2" y="3154.7" width="111.8" height="20"/>
    <rect style="fill: none; fill-opacity:0; stroke-width: 2; stroke: #000000" x="-3536.2" y="3154.7" width="111.8" height="20"/>
    <text font-size="12.7998" style="fill: #000000;text-anchor:start;font-family:monospace;font-style:normal;font-weight:normal" x="-3534.2" y="3169.7">Notify updates</text>
  </g>
  <g>
    <rect style="fill: #ffffff" x="-3304.78" y="3210.84" width="195.3" height="44"/>
    <rect style="fill: none; fill-opacity:0; stroke-width: 2; stroke: #000000" x="-3304.78" y="3210.84" width="195.3" height="44"/>
    <text font-size="12.8" style="fill: #000000;text-anchor:middle;font-family:monospace;font-style:normal;font-weight:normal" x="-3207.13" y="3226.84">&lt;&lt;mozIDOMApplication&gt;&gt;</text>
    <text font-size="16" style="fill: #000000;text-anchor:middle;font-family:sans-serif;font-style:normal;font-weight:700" x="-3207.13" y="3245.84">WebappsApplication</text>
    <rect style="fill: #ffffff" x="-3304.78" y="3254.84" width="195.3" height="8"/>
    <rect style="fill: none; fill-opacity:0; stroke-width: 2; stroke: #000000" x="-3304.78" y="3254.84" width="195.3" height="8"/>
    <rect style="fill: #ffffff" x="-3304.78" y="3262.84" width="195.3" height="68"/>
    <rect style="fill: none; fill-opacity:0; stroke-width: 2; stroke: #000000" x="-3304.78" y="3262.84" width="195.3" height="68"/>
    <text font-size="12.8" style="fill: #000000;text-anchor:start;font-family:monospace;font-style:normal;font-weight:normal" x="-3301.78" y="3276.84">+ondownloaderror()</text>
    <text font-size="12.8" style="fill: #000000;text-anchor:start;font-family:monospace;font-style:normal;font-weight:normal" x="-3301.78" y="3292.84">+ondownloadsuccess()</text>
    <text font-size="12.8" style="fill: #000000;text-anchor:start;font-family:monospace;font-style:normal;font-weight:normal" x="-3301.78" y="3308.84">+ondownloadapplied()</text>
    <text font-size="12.8" style="fill: #000000;text-anchor:start;font-family:monospace;font-style:normal;font-weight:normal" x="-3301.78" y="3324.84">+onprogress()</text>
  </g>
  <g>
    <rect style="fill: #ffffff" x="-2941.57" y="3227.22" width="156.3" height="28"/>
    <rect style="fill: none; fill-opacity:0; stroke-width: 2; stroke: #000000" x="-2941.57" y="3227.22" width="156.3" height="28"/>
    <text font-size="16" style="fill: #000000;text-anchor:middle;font-family:sans-serif;font-style:normal;font-weight:700" x="-2863.42" y="3246.22">AppUpdatable</text>
    <rect style="fill: #ffffff" x="-2941.57" y="3255.22" width="156.3" height="8"/>
    <rect style="fill: none; fill-opacity:0; stroke-width: 2; stroke: #000000" x="-2941.57" y="3255.22" width="156.3" height="8"/>
    <rect style="fill: #ffffff" x="-2941.57" y="3263.22" width="156.3" height="68"/>
    <rect style="fill: none; fill-opacity:0; stroke-width: 2; stroke: #000000" x="-2941.57" y="3263.22" width="156.3" height="68"/>
    <text font-size="12.8" style="fill: #000000;text-anchor:start;font-family:monospace;font-style:normal;font-weight:normal" x="-2938.57" y="3277.22">+errorCallback()</text>
    <text font-size="12.8" style="fill: #000000;text-anchor:start;font-family:monospace;font-style:normal;font-weight:normal" x="-2938.57" y="3293.22">+successCallback()</text>
    <text font-size="12.8" style="fill: #000000;text-anchor:start;font-family:monospace;font-style:normal;font-weight:normal" x="-2938.57" y="3309.22">+appliedCallback()</text>
    <text font-size="12.8" style="fill: #000000;text-anchor:start;font-family:monospace;font-style:normal;font-weight:normal" x="-2938.57" y="3325.22">+progressCallback()</text>
  </g>
  <g>
    <rect style="fill: #ffffff" x="-2640.8" y="3230.89" width="156.3" height="28"/>
    <rect style="fill: none; fill-opacity:0; stroke-width: 2; stroke: #000000" x="-2640.8" y="3230.89" width="156.3" height="28"/>
    <text font-size="16" style="fill: #000000;text-anchor:middle;font-family:sans-serif;font-style:normal;font-weight:700" x="-2562.65" y="3249.89">UpdateManager</text>
    <rect style="fill: #ffffff" x="-2640.8" y="3258.89" width="156.3" height="20"/>
    <rect style="fill: none; fill-opacity:0; stroke-width: 2; stroke: #000000" x="-2640.8" y="3258.89" width="156.3" height="20"/>
    <text font-size="12.8" style="fill: #000000;text-anchor:start;font-family:monospace;font-style:normal;font-weight:normal" x="-2637.8" y="3272.89">+updateQueue: array</text>
    <rect style="fill: #ffffff" x="-2640.8" y="3278.89" width="156.3" height="8"/>
    <rect style="fill: none; fill-opacity:0; stroke-width: 2; stroke: #000000" x="-2640.8" y="3278.89" width="156.3" height="8"/>
  </g>
  <g>
    <line style="fill: none; fill-opacity:0; stroke-width: 1; stroke-dasharray: 8; stroke: #000000" x1="-3207.13" y1="3330.84" x2="-3207.13" y2="3372.79"/>
    <line style="fill: none; fill-opacity:0; stroke-width: 1; stroke-dasharray: 8; stroke: #000000" x1="-3207.13" y1="3412.79" x2="-3207.13" y2="3559.31"/>
    <rect style="fill: #ffffff" x="-3214.13" y="3372.79" width="14" height="40"/>
    <rect style="fill: none; fill-opacity:0; stroke-width: 2; stroke: #000000" x="-3214.13" y="3372.79" width="14" height="40"/>
  </g>
  <g>
    <polygon style="fill: #ffffff" points="-3522.92,3411.56 -3255.12,3411.56 -3243.12,3423.56 -3243.12,3461.56 -3522.92,3461.56 "/>
    <polygon style="fill: none; fill-opacity:0; stroke-width: 2; stroke: #000000" points="-3522.92,3411.56 -3255.12,3411.56 -3243.12,3423.56 -3243.12,3461.56 -3522.92,3461.56 "/>
    <polyline style="fill: none; fill-opacity:0; stroke-width: 1; stroke: #000000" points="-3255.12,3411.56 -3255.12,3423.56 -3243.12,3423.56 "/>
    <text font-size="12.7998" style="fill: #000000;text-anchor:start;font-family:monospace;font-style:normal;font-weight:normal" x="-3515.92" y="3436.46">
      <tspan x="-3515.92" y="3436.46">receiveMessage:</tspan>
      <tspan x="-3515.92" y="3452.46">"Webapps:CheckForUpdate:Return:OK"</tspan>
    </text>
  </g>
  <line style="fill: none; fill-opacity:0; stroke-width: 2; stroke-dasharray: 4; stroke: #000000" x1="-3214.13" y1="3372.79" x2="-3314.15" y2="3410.55"/>
  <g>
    <line style="fill: none; fill-opacity:0; stroke-width: 1; stroke-dasharray: 8; stroke: #000000" x1="-2863.42" y1="3331.22" x2="-2863.42" y2="3382.31"/>
    <line style="fill: none; fill-opacity:0; stroke-width: 1; stroke-dasharray: 8; stroke: #000000" x1="-2863.42" y1="3422.31" x2="-2863.42" y2="3569.08"/>
    <rect style="fill: #ffffff" x="-2870.42" y="3382.31" width="14" height="40"/>
    <rect style="fill: none; fill-opacity:0; stroke-width: 2; stroke: #000000" x="-2870.42" y="3382.31" width="14" height="40"/>
  </g>
  <g>
    <line style="fill: none; fill-opacity:0; stroke-width: 2; stroke: #000000" x1="-2887.42" y1="3382.33" x2="-3200.13" y2="3382.79"/>
    <polygon style="fill: #000000" points="-2887.41,3387.33 -2871.42,3382.31 -2887.43,3377.33 "/>
    <polygon style="fill: none; fill-opacity:0; stroke-width: 2; stroke: #000000" points="-2887.41,3387.33 -2871.42,3382.31 -2887.43,3377.33 "/>
    <text font-size="12.7998" style="fill: #000000;text-anchor:middle;font-family:sans-serif;font-style:normal;font-weight:normal" x="-3033.22" y="3373.98">ondownloadavailable()</text>
  </g>
  <g>
    <polyline style="fill: none; fill-opacity:0; stroke-width: 2; stroke: #000000" points="-2966.74,3273.22 -3032.53,3273.22 -3032.53,3272.84 -3109.48,3272.84 "/>
    <polygon style="fill: #000000" points="-2941.57,3273.22 -2955.57,3278.02 -2969.57,3273.22 -2955.57,3268.42 "/>
    <polygon style="fill: none; fill-opacity:0; stroke-width: 2; stroke: #000000" points="-2941.57,3273.22 -2955.57,3278.02 -2969.57,3273.22 -2955.57,3268.42 "/>
  </g>
  <g>
    <polyline style="fill: none; fill-opacity:0; stroke-width: 2; stroke: #000000" points="-2966.74,3289.22 -3032.53,3289.22 -3032.53,3288.84 -3109.48,3288.84 "/>
    <polygon style="fill: #000000" points="-2941.57,3289.22 -2955.57,3294.02 -2969.57,3289.22 -2955.57,3284.42 "/>
    <polygon style="fill: none; fill-opacity:0; stroke-width: 2; stroke: #000000" points="-2941.57,3289.22 -2955.57,3294.02 -2969.57,3289.22 -2955.57,3284.42 "/>
  </g>
  <g>
    <polyline style="fill: none; fill-opacity:0; stroke-width: 2; stroke: #000000" points="-2966.74,3305.22 -3032.53,3305.22 -3032.53,3304.84 -3109.48,3304.84 "/>
    <polygon style="fill: #000000" points="-2941.57,3305.22 -2955.57,3310.02 -2969.57,3305.22 -2955.57,3300.42 "/>
    <polygon style="fill: none; fill-opacity:0; stroke-width: 2; stroke: #000000" points="-2941.57,3305.22 -2955.57,3310.02 -2969.57,3305.22 -2955.57,3300.42 "/>
  </g>
  <g>
    <polyline style="fill: none; fill-opacity:0; stroke-width: 2; stroke: #000000" points="-2966.74,3321.22 -3032.53,3321.22 -3032.53,3320.84 -3109.48,3320.84 "/>
    <polygon style="fill: #000000" points="-2941.57,3321.22 -2955.57,3326.02 -2969.57,3321.22 -2955.57,3316.42 "/>
    <polygon style="fill: none; fill-opacity:0; stroke-width: 2; stroke: #000000" points="-2941.57,3321.22 -2955.57,3326.02 -2969.57,3321.22 -2955.57,3316.42 "/>
  </g>
  <g>
    <line style="fill: none; fill-opacity:0; stroke-width: 1; stroke-dasharray: 8; stroke: #000000" x1="-2562.65" y1="3286.89" x2="-2562.65" y2="3402.96"/>
    <line style="fill: none; fill-opacity:0; stroke-width: 1; stroke-dasharray: 8; stroke: #000000" x1="-2562.65" y1="3442.96" x2="-2562.65" y2="3442.96"/>
    <rect style="fill: #ffffff" x="-2569.65" y="3402.96" width="14" height="40"/>
    <rect style="fill: none; fill-opacity:0; stroke-width: 2; stroke: #000000" x="-2569.65" y="3402.96" width="14" height="40"/>
  </g>
  <g>
    <line style="fill: none; fill-opacity:0; stroke-width: 2; stroke: #000000" x1="-2586.65" y1="3402.92" x2="-2856.42" y2="3402.31"/>
    <polygon style="fill: #000000" points="-2586.66,3407.92 -2570.65,3402.95 -2586.64,3397.92 "/>
    <polygon style="fill: none; fill-opacity:0; stroke-width: 2; stroke: #000000" points="-2586.66,3407.92 -2570.65,3402.95 -2586.64,3397.92 "/>
    <text font-size="12.7998" style="fill: #000000;text-anchor:middle;font-family:sans-serif;font-style:normal;font-weight:normal" x="-2710.95" y="3395.39">addToUpdatesQueue(this)</text>
  </g>
  <g>
    <rect style="fill: #ffffff" x="-2411.27" y="3240.8" width="107.25" height="57"/>
    <rect style="fill: none; fill-opacity:0; stroke-width: 2; stroke: #000000" x="-2411.27" y="3240.8" width="107.25" height="57"/>
    <text font-size="12.7998" style="fill: #000000;text-anchor:middle;font-family:sans-serif;font-style:normal;font-weight:normal" x="-2357.65" y="3283.7">
      <tspan x="-2357.65" y="3283.7">updateQueue</tspan>
    </text>
    <text font-size="12.7998" style="fill: #000000;text-anchor:middle;font-family:sans-serif;font-style:normal;font-weight:normal" x="-2357.65" y="3266.8">&lt;&lt;array&gt;&gt;</text>
    <line style="fill: none; fill-opacity:0; stroke-width: 1; stroke: #000000" x1="-2401.27" y1="3286.7" x2="-2314.02" y2="3286.7"/>
  </g>
  <g>
    <line style="fill: none; fill-opacity:0; stroke-width: 2; stroke: #000000" x1="-2381.65" y1="3413.2" x2="-2555.65" y2="3412.96"/>
    <polygon style="fill: #000000" points="-2381.66,3418.2 -2365.65,3413.22 -2381.64,3408.2 "/>
    <polygon style="fill: none; fill-opacity:0; stroke-width: 2; stroke: #000000" points="-2381.66,3418.2 -2365.65,3413.22 -2381.64,3408.2 "/>
    <text font-size="12.7998" style="fill: #000000;text-anchor:middle;font-family:sans-serif;font-style:normal;font-weight:normal" x="-2461.22" y="3403.71">push</text>
  </g>
  <g>
    <line style="fill: none; fill-opacity:0; stroke-width: 1; stroke-dasharray: 8; stroke: #000000" x1="-2357.65" y1="3297.8" x2="-2357.65" y2="3413.23"/>
    <line style="fill: none; fill-opacity:0; stroke-width: 1; stroke-dasharray: 8; stroke: #000000" x1="-2357.65" y1="3433.23" x2="-2357.65" y2="3523.82"/>
    <rect style="fill: #ffffff" x="-2364.65" y="3413.23" width="14" height="20"/>
    <rect style="fill: none; fill-opacity:0; stroke-width: 2; stroke: #000000" x="-2364.65" y="3413.23" width="14" height="20"/>
  </g>
  <g>
    <polyline style="fill: none; fill-opacity:0; stroke-width: 2; stroke: #000000" points="-2437.45,3269.3 -2455.39,3269.3 -2455.39,3268.89 -2484.5,3268.89 "/>
    <polygon style="fill: #000000" points="-2412.28,3269.3 -2426.28,3274.1 -2440.28,3269.3 -2426.28,3264.5 "/>
    <polygon style="fill: none; fill-opacity:0; stroke-width: 2; stroke: #000000" points="-2412.28,3269.3 -2426.28,3274.1 -2440.28,3269.3 -2426.28,3264.5 "/>
  </g>
  <g>
    <polyline style="fill: none; fill-opacity:0; stroke-width: 2; stroke: #000000" points="-2863.42,3202.05 -2863.42,3192.22 -2357.65,3192.22 -2357.65,3239.79 "/>
    <polygon style="fill: #000000" points="-2863.42,3227.22 -2868.22,3213.22 -2863.42,3199.22 -2858.62,3213.22 "/>
    <polygon style="fill: none; fill-opacity:0; stroke-width: 2; stroke: #000000" points="-2863.42,3227.22 -2868.22,3213.22 -2863.42,3199.22 -2858.62,3213.22 "/>
  </g>
  <g>
    <line style="fill: none; fill-opacity:0; stroke-width: 1; stroke-dasharray: 8; stroke: #000000" x1="-2562.65" y1="3442.96" x2="-2562.65" y2="3488.14"/>
    <line style="fill: none; fill-opacity:0; stroke-width: 1; stroke-dasharray: 8; stroke: #000000" x1="-2562.65" y1="3528.14" x2="-2562.65" y2="3580.9"/>
    <rect style="fill: #ffffff" x="-2569.65" y="3488.14" width="14" height="40"/>
    <rect style="fill: none; fill-opacity:0; stroke-width: 2; stroke: #000000" x="-2569.65" y="3488.14" width="14" height="40"/>
  </g>
  <g>
    <path style="fill: none; fill-opacity:0; stroke-width: 2; stroke-dasharray: 4; stroke: #000000" d="M -2551.61,3486.35 A 23.848,23.848 0 0 0 -2555.65,3442.96"/>
    <polyline style="fill: none; fill-opacity:0; stroke-width: 2; stroke: #000000" points="-2545.65,3479.49 -2553.53,3487.43 -2542.45,3488.97 "/>
  </g>
  <g>
    <polygon style="fill: #ffffff" points="-2830.9,3511.81 -2601.6,3511.81 -2589.6,3523.81 -2589.6,3561.81 -2830.9,3561.81 "/>
    <polygon style="fill: none; fill-opacity:0; stroke-width: 2; stroke: #000000" points="-2830.9,3511.81 -2601.6,3511.81 -2589.6,3523.81 -2589.6,3561.81 -2830.9,3561.81 "/>
    <polyline style="fill: none; fill-opacity:0; stroke-width: 1; stroke: #000000" points="-2601.6,3511.81 -2601.6,3523.81 -2589.6,3523.81 "/>
    <text font-size="12.7998" style="fill: #000000;text-anchor:start;font-family:monospace;font-style:normal;font-weight:normal" x="-2823.9" y="3536.71">
      <tspan x="-2823.9" y="3536.71">displayNotificationAndToaster</tspan>
      <tspan x="-2823.9" y="3552.71">(shows 1.2 secs)</tspan>
    </text>
  </g>
  <line style="fill: none; fill-opacity:0; stroke-width: 2; stroke-dasharray: 4; stroke: #000000" x1="-2635.13" y1="3510.81" x2="-2569.65" y2="3488.14"/>
  <g>
    <polygon style="fill: #ffffff" points="-2516.43,3441.14 -2410.33,3441.14 -2398.33,3453.14 -2398.33,3475.14 -2516.43,3475.14 "/>
    <polygon style="fill: none; fill-opacity:0; stroke-width: 2; stroke: #000000" points="-2516.43,3441.14 -2410.33,3441.14 -2398.33,3453.14 -2398.33,3475.14 -2516.43,3475.14 "/>
    <polyline style="fill: none; fill-opacity:0; stroke-width: 1; stroke: #000000" points="-2410.33,3441.14 -2410.33,3453.14 -2398.33,3453.14 "/>
    <text font-size="12.7998" style="fill: #000000;text-anchor:start;font-family:monospace;font-style:normal;font-weight:normal" x="-2509.43" y="3466.04">
      <tspan x="-2509.43" y="3466.04">30 secs timer</tspan>
    </text>
  </g>
  <line style="fill: none; fill-opacity:0; stroke-width: 2; stroke-dasharray: 4; stroke: #000000" x1="-2517.42" y1="3448.86" x2="-2555.65" y2="3442.96"/>
</svg>
